HIERARCHY
ROOT Hips
{
	OFFSET 0.000000 0.000000 0.000000 
	CHANNELS 6 Xposition Yposition Zposition Zrotation Yrotation Xrotation
	JOINT LeftUpLeg
	{
		OFFSET 1.363060 -1.794630 0.839290 
		CHANNELS 3 Zrotation Yrotation Xrotation
		JOINT LeftLeg
		{
			OFFSET 2.448110 -6.726130 0.000000 
			CHANNELS 3 Zrotation Yrotation Xrotation
			JOINT LeftFoot
			{
				OFFSET 2.562200 -7.039590 0.000000 
				CHANNELS 3 Zrotation Yrotation Xrotation
				JOINT LeftToeBase
				{
					OFFSET 0.157640 -0.433110 2.322550 
					CHANNELS 3 Zrotation Yrotation Xrotation
					End Site
					{
						OFFSET 0.000000 0.000000 0.000000 
					}
				}
			}
		}
	}
	JOINT RightUpLeg
	{
		OFFSET -1.305520 -1.794630 0.839290 
		CHANNELS 3 Zrotation Yrotation Xrotation
		JOINT RightLeg
		{
			OFFSET -2.542530 -6.985550 0.000000 
			CHANNELS 3 Zrotation Yrotation Xrotation
			JOINT RightFoot
			{
				OFFSET -2.568260 -7.056230 0.000000 
				CHANNELS 3 Zrotation Yrotation Xrotation
				JOINT RightToeBase
				{
					OFFSET -0.164730 -0.452590 2.363150 
					CHANNELS 3 Zrotation Yrotation Xrotation
					End Site
					{
						OFFSET 0.000000 0.000000 0.000000 
					}
				}
			}
		}
	}
	JOINT Spine
	{
		OFFSET 0.028270 2.035590 -0.193380 
		CHANNELS 3 Zrotation Yrotation Xrotation
		JOINT Spine1
		{
			OFFSET 0.056720 2.048850 -0.042750 
			CHANNELS 3 Zrotation Yrotation Xrotation
			JOINT Neck1
			{
				OFFSET -0.054170 1.746240 0.172020 
				CHANNELS 3 Zrotation Yrotation Xrotation
				JOINT Head
				{
					OFFSET 0.104070 1.761360 -0.123970 
					CHANNELS 3 Zrotation Yrotation Xrotation
					End Site
					{
						OFFSET 0.000000 0.000000 0.000000 
					}
				}
			}
			JOINT LeftArm
			{
				OFFSET 3.362410 1.200890 -0.311210 
				CHANNELS 3 Zrotation Yrotation Xrotation
				JOINT LeftForeArm
				{
					OFFSET 4.983000 -0.000000 -0.000000 
					CHANNELS 3 Zrotation Yrotation Xrotation
					JOINT LeftHand
					{
						OFFSET 3.483560 -0.000000 -0.000000 
						CHANNELS 3 Zrotation Yrotation Xrotation
						JOINT LeftHandIndex1
						{
							OFFSET 0.715260 -0.000000 -0.000000 
							CHANNELS 3 Zrotation Yrotation Xrotation
							End Site
							{
								OFFSET 0.000000 0.000000 0.000000 
							}
						}
					}
				}
			}
			JOINT RightArm
			{
				OFFSET -3.136600 1.374050 -0.404650 
				CHANNELS 3 Zrotation Yrotation Xrotation
				JOINT RightForeArm
				{
					OFFSET -5.241900 -0.000000 -0.000000 
					CHANNELS 3 Zrotation Yrotation Xrotation
					JOINT RightHand
					{
						OFFSET -3.444170 -0.000000 -0.000000 
						CHANNELS 3 Zrotation Yrotation Xrotation
						JOINT RightHandIndex1
						{
							OFFSET -0.622530 -0.000000 -0.000000 
							CHANNELS 3 Zrotation Yrotation Xrotation
							End Site
							{
								OFFSET 0.000000 0.000000 0.000000 
							}
						}
					}
				}
			}
		}
	}
}
MOTION
Frames: 6
Frame Time: 0.041667
10.099340 17.399910 -9.432274 -167.716143 -76.640050 -179.146276 0.365041 7.330299 -26.204760 1.592132 9.659761 26.983972 -1.817730 9.044488 6.500100 0.322800 -3.651700 -10.098900 9.194859 13.351469 -31.393520 -3.719463 -14.017637 39.518539 0.043475 -3.268364 1.118896 -0.046700 1.394700 -3.835600 1.857834 2.803301 -2.415834 4.112609 0.987135 -1.972824 3.330481 13.142092 2.937452 3.147500 6.347900 4.872400 -91.442240 -24.065637 77.710831 41.424606 -49.416591 -15.481536 -0.744387 1.547558 -20.973342 -7.125000 0.000000 0.000000 80.382615 10.087188 46.603700 -68.803376 59.081795 -37.538880 1.289640 -0.252152 -76.823712 7.125000 0.000000 0.000000 
10.101695 17.398989 -9.408118 -168.143247 -76.713775 -178.907517 0.247175 7.212937 -26.070577 1.588149 9.685429 27.039720 -1.825204 9.060854 6.435584 0.320700 -3.640400 -10.067000 9.065633 13.160559 -31.241525 -3.714098 -14.006384 39.492599 0.023771 -3.216908 1.172317 -0.050700 1.452800 -3.995700 1.848394 2.667689 -2.387869 3.982579 0.918158 -1.980388 3.278941 13.171523 2.925680 3.134200 6.359100 4.868600 -91.282991 -24.684749 78.041394 41.789033 -49.550138 -15.682459 -0.683975 1.553735 -20.548082 -7.125000 0.000000 0.000000 79.563014 10.353789 47.143341 -70.224841 59.169485 -38.547733 1.225505 -0.222100 -72.377951 7.125000 0.000000 0.000000 
10.103537 17.401139 -9.385497 -168.826996 -76.790894 -178.370571 0.112451 6.920032 -25.901566 1.578270 9.715353 27.085590 -1.889283 9.242510 6.290995 0.314400 -3.604400 -9.966300 8.854280 12.997549 -31.128433 -3.712432 -13.997103 39.474189 -0.003650 -3.144727 1.221603 -0.048700 1.424800 -3.918300 1.843937 2.523565 -2.361202 3.942438 0.845604 -1.966690 3.251455 13.191381 2.887798 3.145200 6.366900 4.844300 -91.358976 -25.370691 78.288683 41.876396 -49.583099 -15.803607 -0.596760 1.646965 -19.847135 -7.125000 0.000000 0.000000 78.664573 10.570962 48.007946 -72.632905 59.348960 -40.425642 1.220747 -0.322505 -70.072781 7.125000 0.000000 0.000000 
10.105482 17.399399 -9.359396 -169.540997 -76.873728 -177.867780 -0.094003 6.870660 -25.799448 1.570745 9.744398 27.150500 -1.874449 9.193590 6.247765 0.316600 -3.616800 -10.000900 8.645611 12.788543 -30.972796 -3.712633 -13.988895 39.463166 -0.032922 -3.067370 1.267201 -0.050600 1.451300 -3.991400 1.830583 2.393666 -2.332046 3.817218 0.781346 -1.998910 3.126261 13.242769 2.824592 3.086400 6.386000 4.824500 -91.225751 -25.898489 78.630298 42.268389 -49.673919 -15.897855 -0.544192 1.546682 -19.062101 -7.125000 0.000000 0.000000 78.063128 10.879247 48.264652 -74.657283 59.412920 -42.025367 1.186793 -0.362813 -67.563408 7.125000 0.000000 0.000000 
10.107427 17.398785 -9.334216 -170.210682 -76.945094 -177.381246 -0.267253 6.738734 -25.673392 1.563378 9.772926 27.207965 -1.889010 9.230684 6.167132 0.315600 -3.611100 -9.984900 8.447194 12.601924 -30.837576 -3.712712 -13.981384 39.452955 -0.064409 -2.983770 1.314600 -0.050900 1.455300 -4.002600 1.821599 2.262136 -2.304655 3.720644 0.715827 -2.014500 3.041296 13.295421 2.781952 3.058200 6.406800 4.809200 -91.152791 -26.485787 78.925084 42.597740 -49.778160 -16.055166 -0.472705 1.530659 -18.389923 -7.125000 0.000000 0.000000 77.381413 11.167938 48.580899 -76.704593 59.430626 -43.675553 1.154061 -0.404925 -65.186767 7.125000 0.000000 0.000000 
10.109269 17.397966 -9.308626 -170.907126 -77.012179 -176.868034 -0.450528 6.617421 -25.560121 1.559110 9.806804 27.283251 -1.899629 9.254104 6.076653 0.314900 -3.607200 -9.974200 8.242153 12.416227 -30.707672 -3.714568 -13.975260 39.448297 -0.098234 -2.893363 1.361076 -0.051000 1.457300 -4.007900 1.813457 2.134560 -2.278385 3.630048 0.652497 -2.034924 2.949100 13.359994 2.740466 3.027000 6.432600 4.795600 -91.088174 -27.058039 79.216167 42.967694 -49.908854 -16.246293 -0.400534 1.518422 -17.731219 -7.125000 0.000000 0.000000 76.745192 11.460852 48.768916 -78.776600 59.398779 -45.392133 1.121876 -0.444275 -63.330117 7.125000 0.000000 0.000000 
